<mxfile host="app.diagrams.net" modified="2024-04-11T09:55:50.734Z" agent="Mozilla/5.0 (Windows NT 10.0; Win64; x64) AppleWebKit/537.36 (KHTML, like Gecko) Chrome/123.0.0.0 Safari/537.36" etag="tWa64fV0oYATEmInlYbM" version="24.2.3" type="github">
  <diagram name="Страница — 1" id="TkwZ9CzfB_ljM-OEGUb-">
    <mxGraphModel dx="9871" dy="5458" grid="1" gridSize="10" guides="1" tooltips="1" connect="1" arrows="1" fold="1" page="1" pageScale="1" pageWidth="827" pageHeight="1169" math="0" shadow="0">
      <root>
        <mxCell id="0" />
        <mxCell id="1" parent="0" />
        <mxCell id="qQ1swpSXQCYVN6z1yTtD-25" style="edgeStyle=orthogonalEdgeStyle;rounded=0;orthogonalLoop=1;jettySize=auto;html=1;" parent="1" source="qQ1swpSXQCYVN6z1yTtD-8" target="qQ1swpSXQCYVN6z1yTtD-22" edge="1">
          <mxGeometry relative="1" as="geometry" />
        </mxCell>
        <mxCell id="qQ1swpSXQCYVN6z1yTtD-26" style="edgeStyle=orthogonalEdgeStyle;rounded=0;orthogonalLoop=1;jettySize=auto;html=1;" parent="1" source="qQ1swpSXQCYVN6z1yTtD-8" target="qQ1swpSXQCYVN6z1yTtD-23" edge="1">
          <mxGeometry relative="1" as="geometry" />
        </mxCell>
        <mxCell id="qQ1swpSXQCYVN6z1yTtD-8" value="Equipment" style="ellipse;whiteSpace=wrap;html=1;" parent="1" vertex="1">
          <mxGeometry x="-3165" y="-280" width="195" height="190" as="geometry" />
        </mxCell>
        <mxCell id="qQ1swpSXQCYVN6z1yTtD-29" style="edgeStyle=orthogonalEdgeStyle;rounded=0;orthogonalLoop=1;jettySize=auto;html=1;" parent="1" source="qQ1swpSXQCYVN6z1yTtD-10" target="qQ1swpSXQCYVN6z1yTtD-27" edge="1">
          <mxGeometry relative="1" as="geometry" />
        </mxCell>
        <mxCell id="qQ1swpSXQCYVN6z1yTtD-30" style="edgeStyle=orthogonalEdgeStyle;rounded=0;orthogonalLoop=1;jettySize=auto;html=1;" parent="1" source="qQ1swpSXQCYVN6z1yTtD-10" target="qQ1swpSXQCYVN6z1yTtD-28" edge="1">
          <mxGeometry relative="1" as="geometry" />
        </mxCell>
        <mxCell id="qQ1swpSXQCYVN6z1yTtD-10" value="Импланты" style="ellipse;whiteSpace=wrap;html=1;" parent="1" vertex="1">
          <mxGeometry x="-2400" y="-42.5" width="200" height="190" as="geometry" />
        </mxCell>
        <mxCell id="kcCB_qPzNy23vx8DAFme-77" style="edgeStyle=orthogonalEdgeStyle;rounded=0;orthogonalLoop=1;jettySize=auto;html=1;entryX=0;entryY=0.5;entryDx=0;entryDy=0;" edge="1" parent="1" source="qQ1swpSXQCYVN6z1yTtD-11" target="kcCB_qPzNy23vx8DAFme-71">
          <mxGeometry relative="1" as="geometry">
            <Array as="points">
              <mxPoint x="-2020" y="-425" />
              <mxPoint x="-2020" y="-220" />
            </Array>
          </mxGeometry>
        </mxCell>
        <mxCell id="kcCB_qPzNy23vx8DAFme-78" style="edgeStyle=orthogonalEdgeStyle;rounded=0;orthogonalLoop=1;jettySize=auto;html=1;entryX=0;entryY=0.5;entryDx=0;entryDy=0;" edge="1" parent="1" source="qQ1swpSXQCYVN6z1yTtD-11" target="kcCB_qPzNy23vx8DAFme-72">
          <mxGeometry relative="1" as="geometry">
            <Array as="points">
              <mxPoint x="-2020" y="-425" />
              <mxPoint x="-2020" y="-140" />
            </Array>
          </mxGeometry>
        </mxCell>
        <mxCell id="kcCB_qPzNy23vx8DAFme-79" style="edgeStyle=orthogonalEdgeStyle;rounded=0;orthogonalLoop=1;jettySize=auto;html=1;entryX=0;entryY=0.5;entryDx=0;entryDy=0;" edge="1" parent="1" source="qQ1swpSXQCYVN6z1yTtD-11" target="kcCB_qPzNy23vx8DAFme-73">
          <mxGeometry relative="1" as="geometry">
            <Array as="points">
              <mxPoint x="-2020" y="-425" />
              <mxPoint x="-2020" y="-62" />
            </Array>
          </mxGeometry>
        </mxCell>
        <mxCell id="kcCB_qPzNy23vx8DAFme-80" style="edgeStyle=orthogonalEdgeStyle;rounded=0;orthogonalLoop=1;jettySize=auto;html=1;entryX=0;entryY=0.5;entryDx=0;entryDy=0;" edge="1" parent="1" source="qQ1swpSXQCYVN6z1yTtD-11" target="kcCB_qPzNy23vx8DAFme-74">
          <mxGeometry relative="1" as="geometry">
            <Array as="points">
              <mxPoint x="-2020" y="-425" />
              <mxPoint x="-2020" y="18" />
            </Array>
          </mxGeometry>
        </mxCell>
        <mxCell id="kcCB_qPzNy23vx8DAFme-83" style="edgeStyle=orthogonalEdgeStyle;rounded=0;orthogonalLoop=1;jettySize=auto;html=1;entryX=1;entryY=0.5;entryDx=0;entryDy=0;" edge="1" parent="1" source="qQ1swpSXQCYVN6z1yTtD-11" target="kcCB_qPzNy23vx8DAFme-75">
          <mxGeometry relative="1" as="geometry">
            <Array as="points">
              <mxPoint x="-1660" y="-425" />
              <mxPoint x="-1660" y="-219" />
            </Array>
          </mxGeometry>
        </mxCell>
        <mxCell id="qQ1swpSXQCYVN6z1yTtD-11" value="Транспорт" style="ellipse;whiteSpace=wrap;html=1;" parent="1" vertex="1">
          <mxGeometry x="-1930" y="-520" width="200" height="190" as="geometry" />
        </mxCell>
        <mxCell id="kcCB_qPzNy23vx8DAFme-103" style="edgeStyle=orthogonalEdgeStyle;rounded=0;orthogonalLoop=1;jettySize=auto;html=1;entryX=0;entryY=0.5;entryDx=0;entryDy=0;" edge="1" parent="1" source="qQ1swpSXQCYVN6z1yTtD-12" target="kcCB_qPzNy23vx8DAFme-92">
          <mxGeometry relative="1" as="geometry">
            <Array as="points">
              <mxPoint x="-1560" y="-419.5" />
              <mxPoint x="-1560" y="-277.5" />
              <mxPoint x="-1559" y="-277.5" />
              <mxPoint x="-1559" y="-215.5" />
            </Array>
          </mxGeometry>
        </mxCell>
        <mxCell id="kcCB_qPzNy23vx8DAFme-104" style="edgeStyle=orthogonalEdgeStyle;rounded=0;orthogonalLoop=1;jettySize=auto;html=1;entryX=0;entryY=0.5;entryDx=0;entryDy=0;" edge="1" parent="1" source="qQ1swpSXQCYVN6z1yTtD-12" target="kcCB_qPzNy23vx8DAFme-93">
          <mxGeometry relative="1" as="geometry">
            <Array as="points">
              <mxPoint x="-1560" y="-419.5" />
              <mxPoint x="-1560" y="-236.5" />
              <mxPoint x="-1559" y="-236.5" />
              <mxPoint x="-1559" y="-132.5" />
            </Array>
          </mxGeometry>
        </mxCell>
        <mxCell id="kcCB_qPzNy23vx8DAFme-105" style="edgeStyle=orthogonalEdgeStyle;rounded=0;orthogonalLoop=1;jettySize=auto;html=1;entryX=0;entryY=0.5;entryDx=0;entryDy=0;" edge="1" parent="1" source="qQ1swpSXQCYVN6z1yTtD-12" target="kcCB_qPzNy23vx8DAFme-94">
          <mxGeometry relative="1" as="geometry">
            <Array as="points">
              <mxPoint x="-1559" y="-419.5" />
              <mxPoint x="-1559" y="-52.5" />
            </Array>
          </mxGeometry>
        </mxCell>
        <mxCell id="kcCB_qPzNy23vx8DAFme-106" style="edgeStyle=orthogonalEdgeStyle;rounded=0;orthogonalLoop=1;jettySize=auto;html=1;entryX=0;entryY=0.5;entryDx=0;entryDy=0;" edge="1" parent="1" source="qQ1swpSXQCYVN6z1yTtD-12" target="kcCB_qPzNy23vx8DAFme-95">
          <mxGeometry relative="1" as="geometry">
            <Array as="points">
              <mxPoint x="-1559" y="-419.5" />
              <mxPoint x="-1559" y="27.5" />
            </Array>
          </mxGeometry>
        </mxCell>
        <mxCell id="kcCB_qPzNy23vx8DAFme-107" style="edgeStyle=orthogonalEdgeStyle;rounded=0;orthogonalLoop=1;jettySize=auto;html=1;entryX=0;entryY=0.5;entryDx=0;entryDy=0;" edge="1" parent="1" source="qQ1swpSXQCYVN6z1yTtD-12" target="kcCB_qPzNy23vx8DAFme-96">
          <mxGeometry relative="1" as="geometry">
            <Array as="points">
              <mxPoint x="-1559" y="-419.5" />
              <mxPoint x="-1559" y="107.5" />
            </Array>
          </mxGeometry>
        </mxCell>
        <mxCell id="kcCB_qPzNy23vx8DAFme-108" style="edgeStyle=orthogonalEdgeStyle;rounded=0;orthogonalLoop=1;jettySize=auto;html=1;entryX=1;entryY=0.5;entryDx=0;entryDy=0;" edge="1" parent="1" source="qQ1swpSXQCYVN6z1yTtD-12" target="kcCB_qPzNy23vx8DAFme-84">
          <mxGeometry relative="1" as="geometry">
            <Array as="points">
              <mxPoint x="-1160" y="-419.5" />
              <mxPoint x="-1160" y="-215.5" />
            </Array>
          </mxGeometry>
        </mxCell>
        <mxCell id="qQ1swpSXQCYVN6z1yTtD-12" value="Дроны" style="ellipse;whiteSpace=wrap;html=1;" parent="1" vertex="1">
          <mxGeometry x="-1460" y="-520" width="200" height="200" as="geometry" />
        </mxCell>
        <mxCell id="kcCB_qPzNy23vx8DAFme-123" style="edgeStyle=orthogonalEdgeStyle;rounded=0;orthogonalLoop=1;jettySize=auto;html=1;entryX=0;entryY=0.5;entryDx=0;entryDy=0;" edge="1" parent="1" source="qQ1swpSXQCYVN6z1yTtD-13" target="kcCB_qPzNy23vx8DAFme-120">
          <mxGeometry relative="1" as="geometry" />
        </mxCell>
        <mxCell id="kcCB_qPzNy23vx8DAFme-124" style="edgeStyle=orthogonalEdgeStyle;rounded=0;orthogonalLoop=1;jettySize=auto;html=1;entryX=0;entryY=0.5;entryDx=0;entryDy=0;" edge="1" parent="1" source="qQ1swpSXQCYVN6z1yTtD-13" target="kcCB_qPzNy23vx8DAFme-121">
          <mxGeometry relative="1" as="geometry" />
        </mxCell>
        <mxCell id="kcCB_qPzNy23vx8DAFme-125" style="edgeStyle=orthogonalEdgeStyle;rounded=0;orthogonalLoop=1;jettySize=auto;html=1;entryX=0;entryY=0.5;entryDx=0;entryDy=0;" edge="1" parent="1" source="qQ1swpSXQCYVN6z1yTtD-13" target="kcCB_qPzNy23vx8DAFme-122">
          <mxGeometry relative="1" as="geometry" />
        </mxCell>
        <mxCell id="kcCB_qPzNy23vx8DAFme-127" style="edgeStyle=orthogonalEdgeStyle;rounded=0;orthogonalLoop=1;jettySize=auto;html=1;entryX=1;entryY=0.5;entryDx=0;entryDy=0;" edge="1" parent="1" source="qQ1swpSXQCYVN6z1yTtD-13" target="kcCB_qPzNy23vx8DAFme-126">
          <mxGeometry relative="1" as="geometry">
            <Array as="points">
              <mxPoint x="-860" y="218" />
              <mxPoint x="-860" y="401" />
            </Array>
          </mxGeometry>
        </mxCell>
        <mxCell id="qQ1swpSXQCYVN6z1yTtD-13" value="Препараты" style="ellipse;whiteSpace=wrap;html=1;" parent="1" vertex="1">
          <mxGeometry x="-1120" y="117.5" width="200" height="200" as="geometry" />
        </mxCell>
        <mxCell id="kcCB_qPzNy23vx8DAFme-133" style="edgeStyle=orthogonalEdgeStyle;rounded=0;orthogonalLoop=1;jettySize=auto;html=1;entryX=0;entryY=0.5;entryDx=0;entryDy=0;" edge="1" parent="1" source="qQ1swpSXQCYVN6z1yTtD-14" target="kcCB_qPzNy23vx8DAFme-128">
          <mxGeometry relative="1" as="geometry" />
        </mxCell>
        <mxCell id="kcCB_qPzNy23vx8DAFme-134" style="edgeStyle=orthogonalEdgeStyle;rounded=0;orthogonalLoop=1;jettySize=auto;html=1;entryX=0;entryY=0.5;entryDx=0;entryDy=0;" edge="1" parent="1" source="qQ1swpSXQCYVN6z1yTtD-14" target="kcCB_qPzNy23vx8DAFme-129">
          <mxGeometry relative="1" as="geometry" />
        </mxCell>
        <mxCell id="kcCB_qPzNy23vx8DAFme-135" style="edgeStyle=orthogonalEdgeStyle;rounded=0;orthogonalLoop=1;jettySize=auto;html=1;entryX=0;entryY=0.5;entryDx=0;entryDy=0;" edge="1" parent="1" source="qQ1swpSXQCYVN6z1yTtD-14" target="kcCB_qPzNy23vx8DAFme-130">
          <mxGeometry relative="1" as="geometry" />
        </mxCell>
        <mxCell id="kcCB_qPzNy23vx8DAFme-136" style="edgeStyle=orthogonalEdgeStyle;rounded=0;orthogonalLoop=1;jettySize=auto;html=1;entryX=0;entryY=0.5;entryDx=0;entryDy=0;" edge="1" parent="1" source="qQ1swpSXQCYVN6z1yTtD-14" target="kcCB_qPzNy23vx8DAFme-131">
          <mxGeometry relative="1" as="geometry" />
        </mxCell>
        <mxCell id="kcCB_qPzNy23vx8DAFme-137" style="edgeStyle=orthogonalEdgeStyle;rounded=0;orthogonalLoop=1;jettySize=auto;html=1;entryX=0;entryY=0.5;entryDx=0;entryDy=0;" edge="1" parent="1" source="qQ1swpSXQCYVN6z1yTtD-14" target="kcCB_qPzNy23vx8DAFme-132">
          <mxGeometry relative="1" as="geometry" />
        </mxCell>
        <mxCell id="qQ1swpSXQCYVN6z1yTtD-14" value="Electronics" style="ellipse;whiteSpace=wrap;html=1;" parent="1" vertex="1">
          <mxGeometry x="-520" y="-400" width="200" height="200" as="geometry" />
        </mxCell>
        <mxCell id="kcCB_qPzNy23vx8DAFme-44" style="edgeStyle=orthogonalEdgeStyle;rounded=0;orthogonalLoop=1;jettySize=auto;html=1;entryX=0.5;entryY=0;entryDx=0;entryDy=0;" edge="1" parent="1" source="qQ1swpSXQCYVN6z1yTtD-22" target="kcCB_qPzNy23vx8DAFme-30">
          <mxGeometry relative="1" as="geometry" />
        </mxCell>
        <mxCell id="kcCB_qPzNy23vx8DAFme-45" style="edgeStyle=orthogonalEdgeStyle;rounded=0;orthogonalLoop=1;jettySize=auto;html=1;entryX=0.5;entryY=0;entryDx=0;entryDy=0;" edge="1" parent="1" source="qQ1swpSXQCYVN6z1yTtD-22" target="kcCB_qPzNy23vx8DAFme-39">
          <mxGeometry relative="1" as="geometry" />
        </mxCell>
        <mxCell id="kcCB_qPzNy23vx8DAFme-46" style="edgeStyle=orthogonalEdgeStyle;rounded=0;orthogonalLoop=1;jettySize=auto;html=1;" edge="1" parent="1" source="qQ1swpSXQCYVN6z1yTtD-22" target="kcCB_qPzNy23vx8DAFme-41">
          <mxGeometry relative="1" as="geometry" />
        </mxCell>
        <mxCell id="kcCB_qPzNy23vx8DAFme-66" style="edgeStyle=orthogonalEdgeStyle;rounded=0;orthogonalLoop=1;jettySize=auto;html=1;entryX=1;entryY=0.5;entryDx=0;entryDy=0;" edge="1" parent="1" source="qQ1swpSXQCYVN6z1yTtD-22" target="kcCB_qPzNy23vx8DAFme-61">
          <mxGeometry relative="1" as="geometry">
            <Array as="points">
              <mxPoint x="-3110" y="60" />
              <mxPoint x="-3110" y="340" />
            </Array>
          </mxGeometry>
        </mxCell>
        <mxCell id="qQ1swpSXQCYVN6z1yTtD-22" value="Weapons" style="ellipse;whiteSpace=wrap;html=1;" parent="1" vertex="1">
          <mxGeometry x="-3291" y="2.5" width="120" height="115" as="geometry" />
        </mxCell>
        <mxCell id="kcCB_qPzNy23vx8DAFme-12" style="edgeStyle=orthogonalEdgeStyle;rounded=0;orthogonalLoop=1;jettySize=auto;html=1;entryX=0.5;entryY=0;entryDx=0;entryDy=0;" edge="1" parent="1" source="qQ1swpSXQCYVN6z1yTtD-23" target="kcCB_qPzNy23vx8DAFme-1">
          <mxGeometry relative="1" as="geometry" />
        </mxCell>
        <mxCell id="kcCB_qPzNy23vx8DAFme-19" style="edgeStyle=orthogonalEdgeStyle;rounded=0;orthogonalLoop=1;jettySize=auto;html=1;entryX=0.5;entryY=0;entryDx=0;entryDy=0;" edge="1" parent="1" source="qQ1swpSXQCYVN6z1yTtD-23" target="kcCB_qPzNy23vx8DAFme-18">
          <mxGeometry relative="1" as="geometry">
            <Array as="points">
              <mxPoint x="-3020" y="60" />
            </Array>
          </mxGeometry>
        </mxCell>
        <mxCell id="qQ1swpSXQCYVN6z1yTtD-23" value="Броня и одежда" style="ellipse;whiteSpace=wrap;html=1;" parent="1" vertex="1">
          <mxGeometry x="-2965" y="7.5" width="120" height="110" as="geometry" />
        </mxCell>
        <mxCell id="kcCB_qPzNy23vx8DAFme-62" style="edgeStyle=orthogonalEdgeStyle;rounded=0;orthogonalLoop=1;jettySize=auto;html=1;entryX=0;entryY=0.5;entryDx=0;entryDy=0;" edge="1" parent="1" source="qQ1swpSXQCYVN6z1yTtD-27" target="kcCB_qPzNy23vx8DAFme-59">
          <mxGeometry relative="1" as="geometry">
            <Array as="points">
              <mxPoint x="-2540" y="303" />
              <mxPoint x="-2540" y="465" />
            </Array>
          </mxGeometry>
        </mxCell>
        <mxCell id="kcCB_qPzNy23vx8DAFme-63" style="edgeStyle=orthogonalEdgeStyle;rounded=0;orthogonalLoop=1;jettySize=auto;html=1;entryX=0;entryY=0.5;entryDx=0;entryDy=0;" edge="1" parent="1" source="qQ1swpSXQCYVN6z1yTtD-27" target="kcCB_qPzNy23vx8DAFme-60">
          <mxGeometry relative="1" as="geometry">
            <Array as="points">
              <mxPoint x="-2540" y="303" />
              <mxPoint x="-2540" y="540" />
            </Array>
          </mxGeometry>
        </mxCell>
        <mxCell id="qQ1swpSXQCYVN6z1yTtD-27" value="Кибервэр" style="ellipse;whiteSpace=wrap;html=1;" parent="1" vertex="1">
          <mxGeometry x="-2479.5" y="242.5" width="120" height="120" as="geometry" />
        </mxCell>
        <mxCell id="kcCB_qPzNy23vx8DAFme-65" style="edgeStyle=orthogonalEdgeStyle;rounded=0;orthogonalLoop=1;jettySize=auto;html=1;entryX=1;entryY=0.5;entryDx=0;entryDy=0;" edge="1" parent="1" source="qQ1swpSXQCYVN6z1yTtD-28" target="kcCB_qPzNy23vx8DAFme-56">
          <mxGeometry relative="1" as="geometry">
            <Array as="points">
              <mxPoint x="-2059.5" y="299.25" />
              <mxPoint x="-2059.5" y="461.25" />
            </Array>
          </mxGeometry>
        </mxCell>
        <mxCell id="kcCB_qPzNy23vx8DAFme-109" style="edgeStyle=orthogonalEdgeStyle;rounded=0;orthogonalLoop=1;jettySize=auto;html=1;entryX=1;entryY=0.5;entryDx=0;entryDy=0;" edge="1" parent="1" source="qQ1swpSXQCYVN6z1yTtD-28" target="kcCB_qPzNy23vx8DAFme-57">
          <mxGeometry relative="1" as="geometry">
            <Array as="points">
              <mxPoint x="-2059.5" y="299.25" />
              <mxPoint x="-2059.5" y="536.25" />
            </Array>
          </mxGeometry>
        </mxCell>
        <mxCell id="kcCB_qPzNy23vx8DAFme-110" style="edgeStyle=orthogonalEdgeStyle;rounded=0;orthogonalLoop=1;jettySize=auto;html=1;entryX=1;entryY=0.5;entryDx=0;entryDy=0;" edge="1" parent="1" source="qQ1swpSXQCYVN6z1yTtD-28" target="kcCB_qPzNy23vx8DAFme-58">
          <mxGeometry relative="1" as="geometry">
            <Array as="points">
              <mxPoint x="-2058.5" y="299.25" />
              <mxPoint x="-2058.5" y="478.25" />
              <mxPoint x="-2059.5" y="478.25" />
              <mxPoint x="-2059.5" y="619.25" />
            </Array>
          </mxGeometry>
        </mxCell>
        <mxCell id="qQ1swpSXQCYVN6z1yTtD-28" value="Биовэр" style="ellipse;whiteSpace=wrap;html=1;" parent="1" vertex="1">
          <mxGeometry x="-2240" y="240" width="121" height="117.5" as="geometry" />
        </mxCell>
        <mxCell id="kcCB_qPzNy23vx8DAFme-16" style="edgeStyle=orthogonalEdgeStyle;rounded=0;orthogonalLoop=1;jettySize=auto;html=1;entryX=0;entryY=0.5;entryDx=0;entryDy=0;" edge="1" parent="1" source="kcCB_qPzNy23vx8DAFme-1" target="kcCB_qPzNy23vx8DAFme-7">
          <mxGeometry relative="1" as="geometry">
            <Array as="points">
              <mxPoint x="-2860" y="220" />
              <mxPoint x="-2860" y="340" />
            </Array>
          </mxGeometry>
        </mxCell>
        <mxCell id="kcCB_qPzNy23vx8DAFme-17" style="edgeStyle=orthogonalEdgeStyle;rounded=0;orthogonalLoop=1;jettySize=auto;html=1;entryX=0;entryY=0.5;entryDx=0;entryDy=0;" edge="1" parent="1" source="kcCB_qPzNy23vx8DAFme-1" target="kcCB_qPzNy23vx8DAFme-8">
          <mxGeometry relative="1" as="geometry">
            <Array as="points">
              <mxPoint x="-2860" y="220" />
              <mxPoint x="-2860" y="420" />
            </Array>
          </mxGeometry>
        </mxCell>
        <mxCell id="kcCB_qPzNy23vx8DAFme-1" value="Типы" style="rounded=1;whiteSpace=wrap;html=1;" vertex="1" parent="1">
          <mxGeometry x="-2840" y="200" width="120" height="40" as="geometry" />
        </mxCell>
        <mxCell id="kcCB_qPzNy23vx8DAFme-7" value="Основная" style="rounded=0;whiteSpace=wrap;html=1;" vertex="1" parent="1">
          <mxGeometry x="-2840" y="320" width="120" height="40" as="geometry" />
        </mxCell>
        <mxCell id="kcCB_qPzNy23vx8DAFme-8" value="Дополнительная" style="rounded=0;whiteSpace=wrap;html=1;" vertex="1" parent="1">
          <mxGeometry x="-2840" y="400" width="120" height="40" as="geometry" />
        </mxCell>
        <mxCell id="kcCB_qPzNy23vx8DAFme-18" value="Модификации" style="rounded=1;whiteSpace=wrap;html=1;" vertex="1" parent="1">
          <mxGeometry x="-3080" y="200" width="120" height="40" as="geometry" />
        </mxCell>
        <mxCell id="kcCB_qPzNy23vx8DAFme-30" value="Модификации" style="rounded=1;whiteSpace=wrap;html=1;" vertex="1" parent="1">
          <mxGeometry x="-3291" y="200" width="120" height="40" as="geometry" />
        </mxCell>
        <mxCell id="kcCB_qPzNy23vx8DAFme-39" value="Аммуниция" style="rounded=1;whiteSpace=wrap;html=1;" vertex="1" parent="1">
          <mxGeometry x="-3450" y="200" width="120" height="40" as="geometry" />
        </mxCell>
        <mxCell id="kcCB_qPzNy23vx8DAFme-111" style="edgeStyle=orthogonalEdgeStyle;rounded=0;orthogonalLoop=1;jettySize=auto;html=1;entryX=0;entryY=0.5;entryDx=0;entryDy=0;" edge="1" parent="1" source="kcCB_qPzNy23vx8DAFme-41" target="kcCB_qPzNy23vx8DAFme-48">
          <mxGeometry relative="1" as="geometry">
            <Array as="points">
              <mxPoint x="-3630" y="220" />
              <mxPoint x="-3630" y="340" />
            </Array>
          </mxGeometry>
        </mxCell>
        <mxCell id="kcCB_qPzNy23vx8DAFme-112" style="edgeStyle=orthogonalEdgeStyle;rounded=0;orthogonalLoop=1;jettySize=auto;html=1;entryX=0;entryY=0.5;entryDx=0;entryDy=0;" edge="1" parent="1" source="kcCB_qPzNy23vx8DAFme-41" target="kcCB_qPzNy23vx8DAFme-49">
          <mxGeometry relative="1" as="geometry">
            <Array as="points">
              <mxPoint x="-3630" y="220" />
              <mxPoint x="-3630" y="420" />
            </Array>
          </mxGeometry>
        </mxCell>
        <mxCell id="kcCB_qPzNy23vx8DAFme-113" style="edgeStyle=orthogonalEdgeStyle;rounded=0;orthogonalLoop=1;jettySize=auto;html=1;entryX=0;entryY=0.5;entryDx=0;entryDy=0;" edge="1" parent="1" source="kcCB_qPzNy23vx8DAFme-41" target="kcCB_qPzNy23vx8DAFme-50">
          <mxGeometry relative="1" as="geometry">
            <Array as="points">
              <mxPoint x="-3630" y="220" />
              <mxPoint x="-3630" y="500" />
            </Array>
          </mxGeometry>
        </mxCell>
        <mxCell id="kcCB_qPzNy23vx8DAFme-114" style="edgeStyle=orthogonalEdgeStyle;rounded=0;orthogonalLoop=1;jettySize=auto;html=1;entryX=0;entryY=0.5;entryDx=0;entryDy=0;" edge="1" parent="1" source="kcCB_qPzNy23vx8DAFme-41" target="kcCB_qPzNy23vx8DAFme-51">
          <mxGeometry relative="1" as="geometry">
            <Array as="points">
              <mxPoint x="-3630" y="220" />
              <mxPoint x="-3630" y="580" />
            </Array>
          </mxGeometry>
        </mxCell>
        <mxCell id="kcCB_qPzNy23vx8DAFme-41" value="Категории оружия" style="rounded=1;whiteSpace=wrap;html=1;" vertex="1" parent="1">
          <mxGeometry x="-3610" y="200" width="120" height="40" as="geometry" />
        </mxCell>
        <mxCell id="kcCB_qPzNy23vx8DAFme-48" value="Рукопашное" style="rounded=0;whiteSpace=wrap;html=1;" vertex="1" parent="1">
          <mxGeometry x="-3600" y="320" width="120" height="40" as="geometry" />
        </mxCell>
        <mxCell id="kcCB_qPzNy23vx8DAFme-49" value="Дистанционное" style="rounded=0;whiteSpace=wrap;html=1;" vertex="1" parent="1">
          <mxGeometry x="-3600" y="400" width="120" height="40" as="geometry" />
        </mxCell>
        <mxCell id="kcCB_qPzNy23vx8DAFme-50" value="Огнестрельное" style="rounded=0;whiteSpace=wrap;html=1;" vertex="1" parent="1">
          <mxGeometry x="-3600" y="480" width="120" height="40" as="geometry" />
        </mxCell>
        <mxCell id="kcCB_qPzNy23vx8DAFme-51" value="Крупнокалиберное" style="rounded=0;whiteSpace=wrap;html=1;" vertex="1" parent="1">
          <mxGeometry x="-3600" y="560" width="120" height="40" as="geometry" />
        </mxCell>
        <mxCell id="kcCB_qPzNy23vx8DAFme-56" value="Базовый" style="rounded=1;whiteSpace=wrap;html=1;" vertex="1" parent="1">
          <mxGeometry x="-2198.5" y="441.25" width="119.5" height="40" as="geometry" />
        </mxCell>
        <mxCell id="kcCB_qPzNy23vx8DAFme-57" value="Культивированный" style="rounded=1;whiteSpace=wrap;html=1;" vertex="1" parent="1">
          <mxGeometry x="-2198.5" y="516.25" width="119.5" height="40" as="geometry" />
        </mxCell>
        <mxCell id="kcCB_qPzNy23vx8DAFme-58" value="Дополнительный" style="rounded=1;whiteSpace=wrap;html=1;" vertex="1" parent="1">
          <mxGeometry x="-2198.5" y="598.75" width="119.5" height="40" as="geometry" />
        </mxCell>
        <mxCell id="kcCB_qPzNy23vx8DAFme-59" value="Базовый" style="rounded=1;whiteSpace=wrap;html=1;" vertex="1" parent="1">
          <mxGeometry x="-2520" y="445" width="119.5" height="40" as="geometry" />
        </mxCell>
        <mxCell id="kcCB_qPzNy23vx8DAFme-60" value="Аксессуары конечностей" style="rounded=1;whiteSpace=wrap;html=1;" vertex="1" parent="1">
          <mxGeometry x="-2520" y="520" width="119.5" height="40" as="geometry" />
        </mxCell>
        <mxCell id="kcCB_qPzNy23vx8DAFme-67" style="edgeStyle=orthogonalEdgeStyle;rounded=0;orthogonalLoop=1;jettySize=auto;html=1;" edge="1" parent="1" source="kcCB_qPzNy23vx8DAFme-61" target="kcCB_qPzNy23vx8DAFme-48">
          <mxGeometry relative="1" as="geometry" />
        </mxCell>
        <mxCell id="kcCB_qPzNy23vx8DAFme-68" style="edgeStyle=orthogonalEdgeStyle;rounded=0;orthogonalLoop=1;jettySize=auto;html=1;entryX=1;entryY=0.5;entryDx=0;entryDy=0;" edge="1" parent="1" source="kcCB_qPzNy23vx8DAFme-61" target="kcCB_qPzNy23vx8DAFme-49">
          <mxGeometry relative="1" as="geometry" />
        </mxCell>
        <mxCell id="kcCB_qPzNy23vx8DAFme-69" style="edgeStyle=orthogonalEdgeStyle;rounded=0;orthogonalLoop=1;jettySize=auto;html=1;entryX=1;entryY=0.5;entryDx=0;entryDy=0;" edge="1" parent="1" source="kcCB_qPzNy23vx8DAFme-61" target="kcCB_qPzNy23vx8DAFme-50">
          <mxGeometry relative="1" as="geometry" />
        </mxCell>
        <mxCell id="kcCB_qPzNy23vx8DAFme-70" style="edgeStyle=orthogonalEdgeStyle;rounded=0;orthogonalLoop=1;jettySize=auto;html=1;entryX=1;entryY=0.5;entryDx=0;entryDy=0;" edge="1" parent="1" source="kcCB_qPzNy23vx8DAFme-61" target="kcCB_qPzNy23vx8DAFme-51">
          <mxGeometry relative="1" as="geometry" />
        </mxCell>
        <mxCell id="kcCB_qPzNy23vx8DAFme-61" value="Имплантированное оружие" style="rounded=1;whiteSpace=wrap;html=1;" vertex="1" parent="1">
          <mxGeometry x="-3411" y="320" width="119.5" height="40" as="geometry" />
        </mxCell>
        <mxCell id="kcCB_qPzNy23vx8DAFme-71" value="Наземный" style="rounded=1;whiteSpace=wrap;html=1;" vertex="1" parent="1">
          <mxGeometry x="-2000" y="-240" width="119.5" height="40" as="geometry" />
        </mxCell>
        <mxCell id="kcCB_qPzNy23vx8DAFme-72" value="Воздушный" style="rounded=1;whiteSpace=wrap;html=1;" vertex="1" parent="1">
          <mxGeometry x="-2000" y="-160" width="119.5" height="40" as="geometry" />
        </mxCell>
        <mxCell id="kcCB_qPzNy23vx8DAFme-73" value="Космический" style="rounded=1;whiteSpace=wrap;html=1;" vertex="1" parent="1">
          <mxGeometry x="-2000" y="-82.5" width="119.5" height="40" as="geometry" />
        </mxCell>
        <mxCell id="kcCB_qPzNy23vx8DAFme-74" value="Подводный" style="rounded=1;whiteSpace=wrap;html=1;" vertex="1" parent="1">
          <mxGeometry x="-2000" y="-2.5" width="119.5" height="40" as="geometry" />
        </mxCell>
        <mxCell id="kcCB_qPzNy23vx8DAFme-75" value="Модификации" style="rounded=1;whiteSpace=wrap;html=1;" vertex="1" parent="1">
          <mxGeometry x="-1800" y="-238.75" width="119.5" height="40" as="geometry" />
        </mxCell>
        <mxCell id="kcCB_qPzNy23vx8DAFme-84" value="Модификации" style="rounded=1;whiteSpace=wrap;html=1;" vertex="1" parent="1">
          <mxGeometry x="-1299.5" y="-235" width="119.5" height="40" as="geometry" />
        </mxCell>
        <mxCell id="kcCB_qPzNy23vx8DAFme-92" value="Микро" style="rounded=1;whiteSpace=wrap;html=1;" vertex="1" parent="1">
          <mxGeometry x="-1539" y="-235" width="119.5" height="40" as="geometry" />
        </mxCell>
        <mxCell id="kcCB_qPzNy23vx8DAFme-93" value="Крошечные" style="rounded=1;whiteSpace=wrap;html=1;" vertex="1" parent="1">
          <mxGeometry x="-1539" y="-152.5" width="119.5" height="40" as="geometry" />
        </mxCell>
        <mxCell id="kcCB_qPzNy23vx8DAFme-94" value="Маленькие" style="rounded=1;whiteSpace=wrap;html=1;" vertex="1" parent="1">
          <mxGeometry x="-1539" y="-72.5" width="119.5" height="40" as="geometry" />
        </mxCell>
        <mxCell id="kcCB_qPzNy23vx8DAFme-95" value="Средние" style="rounded=1;whiteSpace=wrap;html=1;" vertex="1" parent="1">
          <mxGeometry x="-1539" y="7.5" width="119.5" height="40" as="geometry" />
        </mxCell>
        <mxCell id="kcCB_qPzNy23vx8DAFme-96" value="Большие" style="rounded=1;whiteSpace=wrap;html=1;" vertex="1" parent="1">
          <mxGeometry x="-1539" y="87.5" width="119.5" height="40" as="geometry" />
        </mxCell>
        <mxCell id="kcCB_qPzNy23vx8DAFme-120" value="Респираторные" style="rounded=1;whiteSpace=wrap;html=1;" vertex="1" parent="1">
          <mxGeometry x="-1280" y="321.25" width="119.5" height="40" as="geometry" />
        </mxCell>
        <mxCell id="kcCB_qPzNy23vx8DAFme-121" value="Инъекции" style="rounded=1;whiteSpace=wrap;html=1;" vertex="1" parent="1">
          <mxGeometry x="-1280" y="400" width="119.5" height="40" as="geometry" />
        </mxCell>
        <mxCell id="kcCB_qPzNy23vx8DAFme-122" value="Прием внутрь" style="rounded=1;whiteSpace=wrap;html=1;" vertex="1" parent="1">
          <mxGeometry x="-1280" y="478.75" width="119.5" height="40" as="geometry" />
        </mxCell>
        <mxCell id="kcCB_qPzNy23vx8DAFme-126" value="Пробужденные" style="rounded=1;whiteSpace=wrap;html=1;" vertex="1" parent="1">
          <mxGeometry x="-1000" y="362.5" width="120" height="77.5" as="geometry" />
        </mxCell>
        <mxCell id="kcCB_qPzNy23vx8DAFme-128" value="Хардвэр" style="rounded=1;whiteSpace=wrap;html=1;" vertex="1" parent="1">
          <mxGeometry x="-680" y="-160" width="120" height="40" as="geometry" />
        </mxCell>
        <mxCell id="kcCB_qPzNy23vx8DAFme-129" value="Софтвэр" style="rounded=1;whiteSpace=wrap;html=1;" vertex="1" parent="1">
          <mxGeometry x="-680" y="-82.5" width="120" height="40" as="geometry" />
        </mxCell>
        <mxCell id="kcCB_qPzNy23vx8DAFme-130" value="Кибердэки" style="rounded=1;whiteSpace=wrap;html=1;" vertex="1" parent="1">
          <mxGeometry x="-680" width="120" height="40" as="geometry" />
        </mxCell>
        <mxCell id="kcCB_qPzNy23vx8DAFme-131" value="Модификации Кибердэк" style="rounded=1;whiteSpace=wrap;html=1;" vertex="1" parent="1">
          <mxGeometry x="-680" y="77.5" width="120" height="40" as="geometry" />
        </mxCell>
        <mxCell id="kcCB_qPzNy23vx8DAFme-132" value="Риггер" style="rounded=1;whiteSpace=wrap;html=1;" vertex="1" parent="1">
          <mxGeometry x="-680" y="160" width="120" height="40" as="geometry" />
        </mxCell>
        <mxCell id="kcCB_qPzNy23vx8DAFme-139" style="edgeStyle=orthogonalEdgeStyle;rounded=0;orthogonalLoop=1;jettySize=auto;html=1;" edge="1" parent="1" source="kcCB_qPzNy23vx8DAFme-138" target="qQ1swpSXQCYVN6z1yTtD-11">
          <mxGeometry relative="1" as="geometry" />
        </mxCell>
        <mxCell id="kcCB_qPzNy23vx8DAFme-140" style="edgeStyle=orthogonalEdgeStyle;rounded=0;orthogonalLoop=1;jettySize=auto;html=1;" edge="1" parent="1" source="kcCB_qPzNy23vx8DAFme-138" target="qQ1swpSXQCYVN6z1yTtD-12">
          <mxGeometry relative="1" as="geometry" />
        </mxCell>
        <mxCell id="kcCB_qPzNy23vx8DAFme-141" style="edgeStyle=orthogonalEdgeStyle;rounded=0;orthogonalLoop=1;jettySize=auto;html=1;" edge="1" parent="1" source="kcCB_qPzNy23vx8DAFme-138" target="qQ1swpSXQCYVN6z1yTtD-10">
          <mxGeometry relative="1" as="geometry" />
        </mxCell>
        <mxCell id="kcCB_qPzNy23vx8DAFme-142" style="edgeStyle=orthogonalEdgeStyle;rounded=0;orthogonalLoop=1;jettySize=auto;html=1;entryX=0.5;entryY=0;entryDx=0;entryDy=0;" edge="1" parent="1" source="kcCB_qPzNy23vx8DAFme-138" target="qQ1swpSXQCYVN6z1yTtD-8">
          <mxGeometry relative="1" as="geometry" />
        </mxCell>
        <mxCell id="kcCB_qPzNy23vx8DAFme-143" style="edgeStyle=orthogonalEdgeStyle;rounded=0;orthogonalLoop=1;jettySize=auto;html=1;entryX=0.5;entryY=0;entryDx=0;entryDy=0;" edge="1" parent="1" source="kcCB_qPzNy23vx8DAFme-138" target="qQ1swpSXQCYVN6z1yTtD-13">
          <mxGeometry relative="1" as="geometry" />
        </mxCell>
        <mxCell id="kcCB_qPzNy23vx8DAFme-144" style="edgeStyle=orthogonalEdgeStyle;rounded=0;orthogonalLoop=1;jettySize=auto;html=1;" edge="1" parent="1" source="kcCB_qPzNy23vx8DAFme-138" target="qQ1swpSXQCYVN6z1yTtD-14">
          <mxGeometry relative="1" as="geometry" />
        </mxCell>
        <mxCell id="kcCB_qPzNy23vx8DAFme-138" value="Техническое" style="shape=hexagon;perimeter=hexagonPerimeter2;whiteSpace=wrap;html=1;fixedSize=1;" vertex="1" parent="1">
          <mxGeometry x="-1880.5" y="-950" width="440.5" height="100" as="geometry" />
        </mxCell>
        <mxCell id="kcCB_qPzNy23vx8DAFme-151" style="edgeStyle=orthogonalEdgeStyle;rounded=0;orthogonalLoop=1;jettySize=auto;html=1;entryX=0.5;entryY=0;entryDx=0;entryDy=0;" edge="1" parent="1" source="kcCB_qPzNy23vx8DAFme-145" target="kcCB_qPzNy23vx8DAFme-149">
          <mxGeometry relative="1" as="geometry" />
        </mxCell>
        <mxCell id="kcCB_qPzNy23vx8DAFme-152" style="edgeStyle=orthogonalEdgeStyle;rounded=0;orthogonalLoop=1;jettySize=auto;html=1;entryX=0.5;entryY=0;entryDx=0;entryDy=0;" edge="1" parent="1" source="kcCB_qPzNy23vx8DAFme-145" target="kcCB_qPzNy23vx8DAFme-148">
          <mxGeometry relative="1" as="geometry" />
        </mxCell>
        <mxCell id="kcCB_qPzNy23vx8DAFme-153" style="edgeStyle=orthogonalEdgeStyle;rounded=0;orthogonalLoop=1;jettySize=auto;html=1;entryX=0.5;entryY=0;entryDx=0;entryDy=0;" edge="1" parent="1" source="kcCB_qPzNy23vx8DAFme-145" target="kcCB_qPzNy23vx8DAFme-150">
          <mxGeometry relative="1" as="geometry" />
        </mxCell>
        <mxCell id="kcCB_qPzNy23vx8DAFme-145" value="Магическое" style="shape=hexagon;perimeter=hexagonPerimeter2;whiteSpace=wrap;html=1;fixedSize=1;" vertex="1" parent="1">
          <mxGeometry y="-950" width="180" height="60" as="geometry" />
        </mxCell>
        <mxCell id="kcCB_qPzNy23vx8DAFme-148" value="Фоки" style="ellipse;whiteSpace=wrap;html=1;aspect=fixed;" vertex="1" parent="1">
          <mxGeometry x="-70" y="-760" width="80" height="80" as="geometry" />
        </mxCell>
        <mxCell id="kcCB_qPzNy23vx8DAFme-149" value="Реагенты" style="ellipse;whiteSpace=wrap;html=1;aspect=fixed;" vertex="1" parent="1">
          <mxGeometry x="50" y="-760" width="80" height="80" as="geometry" />
        </mxCell>
        <mxCell id="kcCB_qPzNy23vx8DAFme-150" value="Артефакты" style="ellipse;whiteSpace=wrap;html=1;aspect=fixed;" vertex="1" parent="1">
          <mxGeometry x="170" y="-760" width="80" height="80" as="geometry" />
        </mxCell>
        <mxCell id="kcCB_qPzNy23vx8DAFme-156" style="edgeStyle=orthogonalEdgeStyle;rounded=0;orthogonalLoop=1;jettySize=auto;html=1;entryX=0.5;entryY=0;entryDx=0;entryDy=0;" edge="1" parent="1" source="kcCB_qPzNy23vx8DAFme-155" target="kcCB_qPzNy23vx8DAFme-138">
          <mxGeometry relative="1" as="geometry" />
        </mxCell>
        <mxCell id="kcCB_qPzNy23vx8DAFme-157" style="edgeStyle=orthogonalEdgeStyle;rounded=0;orthogonalLoop=1;jettySize=auto;html=1;entryX=0.5;entryY=0;entryDx=0;entryDy=0;" edge="1" parent="1" source="kcCB_qPzNy23vx8DAFme-155" target="kcCB_qPzNy23vx8DAFme-145">
          <mxGeometry relative="1" as="geometry" />
        </mxCell>
        <mxCell id="kcCB_qPzNy23vx8DAFme-155" value="Снаряжение" style="ellipse;whiteSpace=wrap;html=1;aspect=fixed;" vertex="1" parent="1">
          <mxGeometry x="-880" y="-1280" width="80" height="80" as="geometry" />
        </mxCell>
      </root>
    </mxGraphModel>
  </diagram>
</mxfile>
